<svg xmlns="http://www.w3.org/2000/svg" viewBox="0 0 32 32" role="img" aria-hidden="true">
  <path
    fill="#25D366"
    d="M16 2.7C8.98 2.7 3.3 8.15 3.3 15.02c0 2.44.67 4.71 1.94 6.7L3 29l7.48-2.38c1.9 1.04 4.05 1.58 6.25 1.58 7.02 0 12.7-5.45 12.7-12.32C29.43 8.15 24.74 2.7 17.72 2.7h-1.72Z"
  />
  <path
    fill="#fff"
    d="M12.58 8.7c-.3-.69-.62-.7-.9-.71-.23-.01-.5-.01-.77-.01-.27 0-.7.1-1.06.51-.36.4-1.39 1.36-1.39 3.32 0 1.96 1.43 3.86 1.63 4.13.2.27 2.75 4.3 6.8 5.86 3.36 1.32 4.05 1.06 4.78.99.73-.08 2.35-.96 2.68-1.88.33-.92.33-1.7.24-1.87-.1-.17-.38-.27-.79-.48-.4-.2-2.35-1.15-2.71-1.28-.36-.13-.62-.2-.88.2-.27.4-1.02 1.28-1.25 1.54-.23.27-.46.3-.86.1-.4-.2-1.69-.62-3.23-1.97-1.19-1.06-1.99-2.37-2.22-2.77-.23-.4-.02-.62.17-.82.17-.17.4-.44.6-.66.2-.22.27-.37.4-.62.13-.27.06-.5-.03-.7-.09-.2-.86-2.16-1.2-2.95Z"
  />
</svg>
